<mxfile host="app.diagrams.net" modified="2021-01-26T12:32:15.605Z" agent="5.0 (Macintosh; Intel Mac OS X 10_15_0) AppleWebKit/537.36 (KHTML, like Gecko) Chrome/88.0.4324.96 Safari/537.36" etag="74Dal4mNpCSZk6QAEjv-" version="14.2.7" type="github">
  <diagram id="Yfu_E-dF0l9IRkGLCvAW" name="Page-1">
    <mxGraphModel dx="1186" dy="591" grid="1" gridSize="10" guides="1" tooltips="1" connect="1" arrows="1" fold="1" page="1" pageScale="1" pageWidth="827" pageHeight="1169" math="0" shadow="0">
      <root>
        <mxCell id="0" />
        <mxCell id="1" parent="0" />
        <mxCell id="jtsp39raqj_vuHEPGFWz-1" value="订单" style="shape=umlLifeline;perimeter=lifelinePerimeter;whiteSpace=wrap;html=1;container=1;collapsible=0;recursiveResize=0;outlineConnect=0;" parent="1" vertex="1">
          <mxGeometry x="150" y="120" width="100" height="300" as="geometry" />
        </mxCell>
        <mxCell id="jtsp39raqj_vuHEPGFWz-19" value="成功" style="rhombus;whiteSpace=wrap;html=1;" parent="jtsp39raqj_vuHEPGFWz-1" vertex="1">
          <mxGeometry x="20" y="170" width="60" height="50" as="geometry" />
        </mxCell>
        <mxCell id="jtsp39raqj_vuHEPGFWz-2" value="商品" style="shape=umlLifeline;perimeter=lifelinePerimeter;whiteSpace=wrap;html=1;container=1;collapsible=0;recursiveResize=0;outlineConnect=0;" parent="1" vertex="1">
          <mxGeometry x="280" y="120" width="100" height="300" as="geometry" />
        </mxCell>
        <mxCell id="jtsp39raqj_vuHEPGFWz-3" value="支付" style="shape=umlLifeline;perimeter=lifelinePerimeter;whiteSpace=wrap;html=1;container=1;collapsible=0;recursiveResize=0;outlineConnect=0;" parent="1" vertex="1">
          <mxGeometry x="430" y="120" width="100" height="300" as="geometry" />
        </mxCell>
        <mxCell id="jtsp39raqj_vuHEPGFWz-21" value="" style="html=1;points=[];perimeter=orthogonalPerimeter;" parent="jtsp39raqj_vuHEPGFWz-3" vertex="1">
          <mxGeometry x="45" y="195" width="10" height="80" as="geometry" />
        </mxCell>
        <mxCell id="jtsp39raqj_vuHEPGFWz-5" value="" style="edgeStyle=orthogonalEdgeStyle;rounded=0;orthogonalLoop=1;jettySize=auto;html=1;" parent="1" source="jtsp39raqj_vuHEPGFWz-4" target="jtsp39raqj_vuHEPGFWz-1" edge="1">
          <mxGeometry relative="1" as="geometry">
            <Array as="points">
              <mxPoint x="140" y="190" />
              <mxPoint x="140" y="190" />
            </Array>
          </mxGeometry>
        </mxCell>
        <mxCell id="jtsp39raqj_vuHEPGFWz-4" value="用户" style="shape=umlActor;verticalLabelPosition=bottom;verticalAlign=top;html=1;" parent="1" vertex="1">
          <mxGeometry x="10" y="150" width="40" height="60" as="geometry" />
        </mxCell>
        <mxCell id="jtsp39raqj_vuHEPGFWz-7" value="下单" style="text;html=1;align=center;verticalAlign=middle;resizable=0;points=[];autosize=1;" parent="1" vertex="1">
          <mxGeometry x="105" y="170" width="40" height="20" as="geometry" />
        </mxCell>
        <mxCell id="jtsp39raqj_vuHEPGFWz-16" value="" style="html=1;points=[];perimeter=orthogonalPerimeter;" parent="1" vertex="1">
          <mxGeometry x="320" y="210" width="10" height="80" as="geometry" />
        </mxCell>
        <mxCell id="jtsp39raqj_vuHEPGFWz-17" value="扣库存" style="html=1;verticalAlign=bottom;endArrow=block;entryX=0.5;entryY=-0.037;entryDx=0;entryDy=0;entryPerimeter=0;" parent="1" source="jtsp39raqj_vuHEPGFWz-1" target="jtsp39raqj_vuHEPGFWz-16" edge="1">
          <mxGeometry x="-0.0359" y="7" relative="1" as="geometry">
            <mxPoint x="200" y="190" as="sourcePoint" />
            <mxPoint x="1" as="offset" />
          </mxGeometry>
        </mxCell>
        <mxCell id="jtsp39raqj_vuHEPGFWz-18" value="响应" style="html=1;verticalAlign=bottom;endArrow=open;dashed=1;endSize=8;exitX=0;exitY=0.95;" parent="1" source="jtsp39raqj_vuHEPGFWz-16" target="jtsp39raqj_vuHEPGFWz-1" edge="1">
          <mxGeometry relative="1" as="geometry">
            <mxPoint x="200" y="266" as="targetPoint" />
          </mxGeometry>
        </mxCell>
        <mxCell id="jtsp39raqj_vuHEPGFWz-22" value="" style="html=1;verticalAlign=bottom;endArrow=block;entryX=0;entryY=0;exitX=1;exitY=0.5;exitDx=0;exitDy=0;" parent="1" source="jtsp39raqj_vuHEPGFWz-19" target="jtsp39raqj_vuHEPGFWz-21" edge="1">
          <mxGeometry relative="1" as="geometry">
            <mxPoint x="230" y="310" as="sourcePoint" />
          </mxGeometry>
        </mxCell>
        <mxCell id="jtsp39raqj_vuHEPGFWz-24" value="进行支付" style="text;html=1;align=center;verticalAlign=middle;resizable=0;points=[];autosize=1;" parent="1" vertex="1">
          <mxGeometry x="380" y="290" width="60" height="20" as="geometry" />
        </mxCell>
        <mxCell id="jtsp39raqj_vuHEPGFWz-23" value="" style="html=1;verticalAlign=bottom;endArrow=open;dashed=1;endSize=8;exitX=0;exitY=0.95;" parent="1" source="jtsp39raqj_vuHEPGFWz-21" target="jtsp39raqj_vuHEPGFWz-1" edge="1">
          <mxGeometry relative="1" as="geometry">
            <mxPoint x="405" y="391" as="targetPoint" />
          </mxGeometry>
        </mxCell>
        <mxCell id="jtsp39raqj_vuHEPGFWz-25" value="支付成功" style="text;html=1;align=center;verticalAlign=middle;resizable=0;points=[];autosize=1;" parent="1" vertex="1">
          <mxGeometry x="200" y="370" width="60" height="20" as="geometry" />
        </mxCell>
        <mxCell id="HZSwtZ0Y9fQaQjt-oGj0-1" value="订单" style="shape=umlLifeline;perimeter=lifelinePerimeter;whiteSpace=wrap;html=1;container=1;collapsible=0;recursiveResize=0;outlineConnect=0;" vertex="1" parent="1">
          <mxGeometry x="170" y="550" width="100" height="300" as="geometry" />
        </mxCell>
        <mxCell id="HZSwtZ0Y9fQaQjt-oGj0-2" value="成功" style="rhombus;whiteSpace=wrap;html=1;" vertex="1" parent="HZSwtZ0Y9fQaQjt-oGj0-1">
          <mxGeometry x="20" y="252.95999999999998" width="60" height="50" as="geometry" />
        </mxCell>
        <mxCell id="HZSwtZ0Y9fQaQjt-oGj0-3" value="商品" style="shape=umlLifeline;perimeter=lifelinePerimeter;whiteSpace=wrap;html=1;container=1;collapsible=0;recursiveResize=0;outlineConnect=0;" vertex="1" parent="1">
          <mxGeometry x="300" y="550" width="100" height="300" as="geometry" />
        </mxCell>
        <mxCell id="HZSwtZ0Y9fQaQjt-oGj0-4" value="支付" style="shape=umlLifeline;perimeter=lifelinePerimeter;whiteSpace=wrap;html=1;container=1;collapsible=0;recursiveResize=0;outlineConnect=0;" vertex="1" parent="1">
          <mxGeometry x="450" y="550" width="100" height="300" as="geometry" />
        </mxCell>
        <mxCell id="HZSwtZ0Y9fQaQjt-oGj0-5" value="" style="html=1;points=[];perimeter=orthogonalPerimeter;" vertex="1" parent="HZSwtZ0Y9fQaQjt-oGj0-4">
          <mxGeometry x="45" y="277.96" width="10" height="80" as="geometry" />
        </mxCell>
        <mxCell id="HZSwtZ0Y9fQaQjt-oGj0-6" value="" style="edgeStyle=orthogonalEdgeStyle;rounded=0;orthogonalLoop=1;jettySize=auto;html=1;" edge="1" source="HZSwtZ0Y9fQaQjt-oGj0-7" target="HZSwtZ0Y9fQaQjt-oGj0-1" parent="1">
          <mxGeometry relative="1" as="geometry">
            <Array as="points">
              <mxPoint x="160" y="620" />
              <mxPoint x="160" y="620" />
            </Array>
          </mxGeometry>
        </mxCell>
        <mxCell id="HZSwtZ0Y9fQaQjt-oGj0-7" value="用户" style="shape=umlActor;verticalLabelPosition=bottom;verticalAlign=top;html=1;" vertex="1" parent="1">
          <mxGeometry x="30" y="580" width="40" height="60" as="geometry" />
        </mxCell>
        <mxCell id="HZSwtZ0Y9fQaQjt-oGj0-8" value="下单" style="text;html=1;align=center;verticalAlign=middle;resizable=0;points=[];autosize=1;" vertex="1" parent="1">
          <mxGeometry x="125" y="600" width="40" height="20" as="geometry" />
        </mxCell>
        <mxCell id="HZSwtZ0Y9fQaQjt-oGj0-9" value="" style="html=1;points=[];perimeter=orthogonalPerimeter;" vertex="1" parent="1">
          <mxGeometry x="340" y="722.96" width="10" height="80" as="geometry" />
        </mxCell>
        <mxCell id="HZSwtZ0Y9fQaQjt-oGj0-10" value="扣库存" style="html=1;verticalAlign=bottom;endArrow=block;entryX=0.5;entryY=-0.037;entryDx=0;entryDy=0;entryPerimeter=0;" edge="1" target="HZSwtZ0Y9fQaQjt-oGj0-9" parent="1">
          <mxGeometry x="-0.0359" y="7" relative="1" as="geometry">
            <mxPoint x="219.5" y="720" as="sourcePoint" />
            <mxPoint x="1" as="offset" />
          </mxGeometry>
        </mxCell>
        <mxCell id="HZSwtZ0Y9fQaQjt-oGj0-11" value="响应" style="html=1;verticalAlign=bottom;endArrow=open;dashed=1;endSize=8;exitX=0;exitY=0.95;" edge="1" source="HZSwtZ0Y9fQaQjt-oGj0-9" parent="1">
          <mxGeometry relative="1" as="geometry">
            <mxPoint x="219.5" y="798.96" as="targetPoint" />
          </mxGeometry>
        </mxCell>
        <mxCell id="HZSwtZ0Y9fQaQjt-oGj0-12" value="" style="html=1;verticalAlign=bottom;endArrow=block;entryX=0;entryY=0;exitX=1;exitY=0.5;exitDx=0;exitDy=0;" edge="1" source="HZSwtZ0Y9fQaQjt-oGj0-2" target="HZSwtZ0Y9fQaQjt-oGj0-5" parent="1">
          <mxGeometry relative="1" as="geometry">
            <mxPoint x="250" y="822.96" as="sourcePoint" />
          </mxGeometry>
        </mxCell>
        <mxCell id="HZSwtZ0Y9fQaQjt-oGj0-13" value="进行支付" style="text;html=1;align=center;verticalAlign=middle;resizable=0;points=[];autosize=1;" vertex="1" parent="1">
          <mxGeometry x="400" y="802.96" width="60" height="20" as="geometry" />
        </mxCell>
        <mxCell id="HZSwtZ0Y9fQaQjt-oGj0-14" value="" style="html=1;verticalAlign=bottom;endArrow=open;dashed=1;endSize=8;exitX=0;exitY=0.95;" edge="1" source="HZSwtZ0Y9fQaQjt-oGj0-5" parent="1">
          <mxGeometry relative="1" as="geometry">
            <mxPoint x="219.5" y="903.96" as="targetPoint" />
          </mxGeometry>
        </mxCell>
        <mxCell id="HZSwtZ0Y9fQaQjt-oGj0-15" value="支付成功" style="text;html=1;align=center;verticalAlign=middle;resizable=0;points=[];autosize=1;" vertex="1" parent="1">
          <mxGeometry x="220" y="882.96" width="60" height="20" as="geometry" />
        </mxCell>
        <mxCell id="HZSwtZ0Y9fQaQjt-oGj0-16" value="" style="html=1;verticalAlign=bottom;endArrow=open;dashed=1;endSize=8;" edge="1" parent="1">
          <mxGeometry relative="1" as="geometry">
            <mxPoint x="580" y="680" as="sourcePoint" />
            <mxPoint x="40" y="680" as="targetPoint" />
          </mxGeometry>
        </mxCell>
        <mxCell id="HZSwtZ0Y9fQaQjt-oGj0-18" value="直接返回处理订单中" style="text;html=1;align=center;verticalAlign=middle;resizable=0;points=[];autosize=1;" vertex="1" parent="1">
          <mxGeometry x="80" y="650" width="120" height="20" as="geometry" />
        </mxCell>
      </root>
    </mxGraphModel>
  </diagram>
</mxfile>
